<?xml version="1.0" standalone="no"?>
<!DOCTYPE svg PUBLIC "-//W3C//DTD SVG 20010904//EN"
 "http://www.w3.org/TR/2001/REC-SVG-20010904/DTD/svg10.dtd">
<svg version="1.0" xmlns="http://www.w3.org/2000/svg"
 width="360.000000pt" height="360.000000pt" viewBox="0 0 360.000000 360.000000"
 preserveAspectRatio="xMidYMid meet">

<g transform="translate(0.000000,360.000000) scale(0.100000,-0.100000)"
fill="#000000" stroke="none">
<path d="M2208 2843 c-8 -10 -18 -37 -22 -59 l-6 -41 51 -7 c28 -4 53 -5 55
-3 2 2 7 24 10 48 5 35 2 49 -11 62 -21 22 -58 22 -77 0z m69 -19 c8 -22 -10
-49 -32 -49 -10 0 -22 7 -28 16 -15 24 -1 49 28 49 15 0 28 -7 32 -16z"/>
<path d="M1438 2799 c-58 -13 -148 -62 -199 -108 -97 -85 -151 -208 -151 -346
0 -417 498 -620 794 -325 68 69 111 152 129 252 40 221 -103 451 -322 519 -65
20 -184 24 -251 8z m269 -119 c77 -36 141 -98 179 -176 26 -53 29 -69 29 -159
0 -89 -3 -106 -27 -155 -141 -286 -541 -281 -676 8 -23 49 -27 70 -27 147 0
78 4 99 29 152 30 66 105 146 167 179 98 51 222 53 326 4z"/>
<path d="M1443 2670 c-79 -26 -161 -99 -200 -178 -24 -50 -28 -69 -28 -147 0
-78 4 -98 28 -146 81 -165 279 -239 444 -165 82 37 152 111 182 191 32 83 26
197 -13 273 -78 153 -251 225 -413 172z m247 -66 c212 -115 201 -419 -19 -526
-65 -32 -178 -31 -241 1 -58 30 -116 85 -142 136 -25 48 -35 154 -19 211 48
176 259 266 421 178z"/>
<path d="M1548 2580 c-6 -56 -2 -79 12 -63 4 4 4 33 1 63 l-7 55 -6 -55z"/>
<path d="M1360 2544 c0 -18 67 -90 76 -81 4 4 -11 27 -34 50 -23 23 -42 37
-42 31z"/>
<path d="M1705 2510 c-21 -22 -36 -43 -32 -46 8 -9 32 11 59 48 31 44 17 43
-27 -2z"/>
<path d="M1495 2486 c-132 -57 -118 -247 20 -285 167 -46 259 197 105 277 -50
25 -81 27 -125 8z m145 -41 c108 -103 1 -276 -138 -223 -99 37 -111 181 -19
239 46 29 118 22 157 -16z"/>
<path d="M1520 2380 c-23 -23 -24 -33 -10 -61 12 -22 59 -26 78 -7 19 19 14
55 -10 72 -29 20 -34 20 -58 -4z"/>
<path d="M1465 2360 c6 -10 4 -12 -7 -7 -11 4 -15 0 -14 -11 2 -9 9 -17 16
-17 16 0 22 33 8 42 -7 4 -8 1 -3 -7z"/>
<path d="M1623 2355 c-3 -9 -3 -18 -1 -21 3 -3 8 4 11 16 6 23 -1 27 -10 5z"/>
<path d="M1534 2253 c1 -7 4 -14 7 -15 2 -2 3 -1 2 1 -2 2 4 9 13 15 13 10 13
12 -4 12 -11 0 -19 -6 -18 -13z"/>
<path d="M1305 2350 c-25 -6 -20 -8 28 -9 32 0 57 3 57 9 0 11 -40 11 -85 0z"/>
<path d="M1720 2350 c0 -6 25 -9 58 -9 56 1 57 1 17 10 -55 11 -75 11 -75 -1z"/>
<path d="M1390 2195 c-18 -19 -31 -37 -29 -40 7 -6 79 54 79 66 0 17 -16 9
-50 -26z"/>
<path d="M1670 2221 c0 -12 72 -72 79 -66 6 6 -60 75 -71 75 -4 0 -8 -4 -8 -9z"/>
<path d="M1546 2128 c8 -66 14 -74 14 -20 0 22 3 47 6 56 4 11 1 16 -10 16
-14 0 -16 -8 -10 -52z"/>
<path d="M2110 2716 c0 -22 5 -25 63 -32 39 -5 52 -10 35 -12 -16 -2 -28 -7
-28 -12 0 -5 12 -13 28 -18 15 -6 22 -11 16 -11 -6 -1 -31 6 -54 14 -52 18
-89 20 -73 4 15 -15 210 -78 218 -71 12 13 3 22 -35 33 -33 10 -38 15 -28 26
9 11 9 17 -3 24 -9 7 2 8 37 4 43 -5 52 -4 58 11 4 10 3 21 -1 25 -8 7 -185
39 -217 39 -10 0 -16 -9 -16 -24z"/>
<path d="M2135 2609 c-4 -5 4 -14 17 -19 21 -9 20 -10 -7 -4 -16 3 -34 6 -39
7 -4 1 -10 -3 -13 -9 -4 -11 177 -74 211 -74 38 0 11 20 -54 41 -38 13 -68 25
-65 27 2 2 25 -3 50 -12 31 -10 45 -11 43 -4 -6 16 -136 59 -143 47z"/>
<path d="M305 2585 c-29 -28 -32 -55 -7 -83 42 -50 112 -22 112 43 0 61 -61
84 -105 40z"/>
<path d="M2120 2541 c0 -5 6 -12 13 -14 6 -3 -3 -3 -22 0 -57 10 -32 -18 40
-44 35 -13 53 -21 39 -18 -76 16 -85 17 -75 8 17 -17 134 -52 140 -42 4 5 -4
14 -17 19 -20 9 -19 10 7 4 46 -10 50 -10 55 1 3 5 -31 22 -75 37 -44 14 -75
27 -69 27 6 1 31 -6 54 -14 48 -17 60 -18 60 -7 0 4 -31 18 -68 30 -77 25 -82
26 -82 13z"/>
<path d="M440 2526 c0 -7 -10 -25 -21 -40 -12 -15 -20 -28 -18 -30 2 -2 116
-68 254 -147 137 -79 257 -151 265 -159 8 -8 107 -250 219 -538 l204 -522 620
2 620 3 109 280 c245 630 318 817 318 821 0 11 -118 3 -123 -8 -32 -82 -354
-906 -369 -945 l-19 -53 -537 0 -537 0 -195 501 c-107 275 -197 504 -200 508
-5 8 -578 341 -586 341 -2 0 -4 -6 -4 -14z"/>
<path d="M2074 2458 c-8 -12 -5 -15 42 -33 21 -9 29 -13 16 -11 -35 7 -21 -16
19 -29 60 -21 89 -26 89 -16 0 6 -18 16 -40 22 -22 7 -38 14 -36 17 3 2 26 -3
52 -12 55 -19 77 -20 72 -5 -5 15 -207 79 -214 67z"/>
<path d="M2480 2401 c-157 -33 -246 -187 -200 -346 10 -36 28 -64 66 -102 195
-195 517 -4 440 261 -38 129 -178 214 -306 187z m115 -120 c22 -10 46 -17 53
-15 7 1 8 0 3 -2 -7 -4 -4 -15 5 -30 9 -13 19 -22 23 -20 15 9 11 -104 -5
-141 -9 -21 -16 -41 -16 -45 1 -5 -1 -7 -6 -6 -9 3 -53 -27 -48 -33 2 -2 -20
-5 -49 -7 -39 -2 -65 3 -93 17 -22 11 -43 17 -47 13 -3 -4 -6 -2 -4 3 1 6 -8
32 -20 59 -25 52 -23 100 5 144 8 12 12 28 8 35 -4 7 -4 9 0 5 4 -3 28 4 53
18 55 29 84 30 138 5z"/>
<path d="M2452 2259 c-88 -57 -82 -197 10 -245 99 -51 212 15 212 124 0 114
-126 182 -222 121z m98 -13 c0 -20 -19 -31 -32 -18 -6 6 -7 15 -4 21 10 16 36
13 36 -3z m16 -54 c40 -26 35 -95 -8 -111 -62 -23 -115 52 -71 101 16 18 59
24 79 10z m-118 -55 c2 -12 -3 -17 -17 -17 -12 0 -21 6 -21 13 0 31 32 34 38
4z m202 3 c0 -21 -24 -28 -35 -10 -8 14 3 30 21 30 8 0 14 -9 14 -20z m-102
-103 c2 -12 -3 -17 -17 -17 -12 0 -21 6 -21 13 0 31 32 34 38 4z"/>
<path d="M2060 2388 c0 -11 76 -40 203 -75 10 -3 17 0 17 9 0 12 -66 37 -202
75 -11 3 -18 0 -18 -9z"/>
<path d="M2096 2334 c-16 -41 -8 -50 57 -61 45 -7 64 -7 69 1 16 23 2 40 -47
57 -63 22 -72 23 -79 3z"/>
<path d="M2076 2243 c-3 -15 -7 -44 -8 -63 -3 -37 -10 -34 98 -53 31 -6 32 -4
43 38 19 76 17 82 -36 90 -27 3 -58 9 -70 12 -17 4 -22 -1 -27 -24z"/>
<path d="M2065 2122 c13 -12 125 -32 125 -21 0 7 -19 12 -95 25 -27 4 -37 3
-30 -4z"/>
<path d="M2080 2061 c0 -69 48 -81 75 -19 16 39 12 44 -37 51 l-38 6 0 -38z
m53 -15 c7 -16 -1 -26 -20 -26 -7 0 -13 9 -13 20 0 23 25 27 33 6z"/>
<path d="M1790 1846 c0 -22 4 -26 31 -26 26 0 30 3 27 23 -2 16 -11 23 -30 25
-24 3 -28 0 -28 -22z"/>
<path d="M2340 1845 c0 -20 5 -25 25 -25 20 0 25 5 25 25 0 20 -5 25 -25 25
-20 0 -25 -5 -25 -25z"/>
<path d="M1757 1803 c-4 -3 -7 -12 -7 -20 0 -11 64 -13 345 -13 288 0 345 2
345 14 0 8 -7 17 -16 20 -21 8 -659 8 -667 -1z"/>
<path d="M1720 1736 c0 -8 8 -17 18 -21 12 -4 695 -1 720 4 1 1 2 8 2 16 0 13
-48 15 -370 15 -310 0 -370 -2 -370 -14z"/>
<path d="M1401 1670 c-46 -26 -88 -54 -95 -61 -6 -7 5 -3 24 8 19 11 65 37
103 58 62 34 78 46 60 44 -5 0 -46 -22 -92 -49z"/>
<path d="M1405 1647 c-49 -29 -88 -57 -85 -62 7 -13 5 -13 110 46 84 48 108
69 78 69 -7 0 -53 -24 -103 -53z"/>
<path d="M1750 1485 l0 -205 36 0 36 0 -4 113 -3 112 25 0 25 0 3 -112 c2 -91
5 -113 17 -113 12 0 15 21 15 115 l0 115 25 0 25 0 0 -115 c0 -96 3 -115 15
-115 12 0 15 19 15 115 l0 115 25 0 25 0 0 -115 c0 -109 1 -115 21 -115 19 0
20 5 19 98 -2 140 -3 132 25 132 l25 0 0 -115 c0 -96 3 -115 15 -115 12 0 15
19 15 115 l0 115 25 0 25 0 0 -115 c0 -96 3 -115 15 -115 12 0 15 19 15 115
l0 115 25 0 25 0 0 -115 c0 -109 1 -115 21 -115 19 0 20 5 18 113 -1 112 -1
112 22 112 24 0 24 -2 27 -112 l3 -113 34 0 35 0 0 205 0 205 -345 0 -345 0 0
-205z m110 155 c24 -24 26 -50 5 -50 -8 0 -15 -4 -15 -10 0 -16 -30 -12 -48 6
-21 22 -24 44 -6 44 8 0 14 7 14 15 0 21 26 19 50 -5z m540 -31 c0 -18 -5 -20
-47 -17 -36 2 -49 7 -51 21 -3 14 4 17 47 17 45 0 51 -3 51 -21z"/>
<path d="M1423 1617 c-40 -23 -73 -46 -73 -50 0 -4 20 4 44 18 35 20 49 24 68
16 30 -11 43 -38 27 -57 -16 -19 -7 -18 46 8 50 24 53 32 28 68 -9 14 -17 26
-17 27 -1 1 -12 4 -26 6 -17 4 -47 -7 -97 -36z m68 12 c-18 -11 -35 -18 -38
-15 -5 5 46 35 62 36 6 0 -5 -9 -24 -21z"/>
<path d="M1395 1575 c-22 -14 -44 -26 -48 -28 -5 -1 2 -21 15 -44 l24 -42 49
32 c45 29 47 32 24 37 -26 6 -37 36 -20 53 7 7 8 3 4 -11 -6 -26 24 -43 38
-21 6 10 2 19 -12 32 -26 21 -26 21 -74 -8z"/>
<path d="M1515 1527 c-73 -39 -128 -77 -121 -84 3 -3 20 5 38 18 18 13 64 41
103 61 38 21 63 37 55 38 -8 0 -42 -15 -75 -33z"/>
<path d="M1498 1490 c-16 -10 -16 -13 -1 -48 8 -20 19 -48 24 -61 9 -22 11
-23 28 -7 9 9 25 16 34 16 23 0 22 3 -19 57 -41 55 -43 56 -66 43z"/>
<path d="M1594 1386 c-17 -6 -46 -26 -64 -43 l-33 -32 27 -41 c20 -31 32 -40
44 -35 9 4 30 11 45 16 16 4 42 21 58 37 l31 30 -21 41 c-23 43 -33 47 -87 27z
m56 -16 c0 -5 -2 -10 -4 -10 -3 0 -8 5 -11 10 -3 6 -1 10 4 10 6 0 11 -4 11
-10z m-13 -36 c12 -19 11 -24 -6 -45 -16 -21 -22 -22 -45 -11 -17 8 -26 19
-26 35 0 48 50 62 77 21z m43 -14 c0 -5 -4 -10 -10 -10 -5 0 -10 5 -10 10 0 6
5 10 10 10 6 0 10 -4 10 -10z m-140 -10 c0 -5 -4 -10 -10 -10 -5 0 -10 5 -10
10 0 6 5 10 10 10 6 0 10 -4 10 -10z m30 -50 c0 -5 -4 -10 -10 -10 -5 0 -10 5
-10 10 0 6 5 10 10 10 6 0 10 -4 10 -10z"/>
<path d="M1732 1258 c-7 -7 -12 -16 -12 -20 0 -4 167 -8 371 -8 347 0 370 1
367 18 -3 16 -29 17 -359 20 -267 2 -358 -1 -367 -10z"/>
<path d="M1395 1031 c-129 -33 -206 -159 -174 -286 17 -67 95 -148 159 -165
181 -48 344 121 286 297 -17 52 -68 109 -121 136 -38 19 -111 28 -150 18z
m150 -133 c67 -72 48 -176 -40 -218 -59 -29 -107 -20 -157 30 -33 33 -38 44
-38 84 0 96 56 150 149 143 47 -3 59 -9 86 -39z"/>
<path d="M2423 1031 c-152 -39 -226 -225 -140 -352 99 -145 306 -141 394 8 24
41 28 59 28 118 -1 77 -15 113 -64 162 -55 56 -146 82 -218 64z m147 -129 c50
-50 59 -94 32 -155 -24 -54 -67 -80 -129 -80 -133 0 -184 184 -70 253 20 13
50 20 81 20 43 0 53 -4 86 -38z"/>
</g>
</svg>
